<mxfile host="app.diagrams.net" modified="2023-08-14T09:04:26.153Z" agent="Mozilla/5.0 (Macintosh; Intel Mac OS X 10_15_7) AppleWebKit/537.36 (KHTML, like Gecko) Chrome/115.0.0.0 Safari/537.36" version="21.6.7" etag="4qRfjJ2mDyPr2qmjCZa0" type="github">
  <diagram name="第 1 页" id="szwedtSmX0fRnZ74gOL9">
    <mxGraphModel>
      <root>
        <mxCell id="0" />
        <mxCell id="1" parent="0" />
      </root>
    </mxGraphModel>
  </diagram>
</mxfile>
